{
  "accessors": [
    {
      "bufferView": 1,
      "componentType": 5126,
      "count": 65532,
      "max": [
        36.843753814697266,
        15.49337387084961,
        22.38445281982422
      ],
      "min": [
        -32.91136932373047,
        -5.341220378875732,
        -29.201269149780273
      ],
      "type": "VEC3"
    },
    {
      "bufferView": 1,
      "byteOffset": 786384,
      "componentType": 5126,
      "count": 65532,
      "max": [
        0.9999818205833435,
        0.802833080291748,
        0.9994660019874573
      ],
      "min": [
        -0.9999755024909973,
        -0.9999973177909851,
        -0.9995471239089966
      ],
      "type": "VEC3"
    },
    {
      "bufferView": 2,
      "componentType": 5126,
      "count": 65532,
      "max": [
        0.8509804010391235,
        0.6549019813537598,
        0.6352941393852234,
        1.0
      ],
      "min": [
        0.05882352963089943,
        0.0117647061124444,
        0.0313725508749485,
        1.0
      ],
      "type": "VEC4"
    },
    {
      "bufferView": 0,
      "componentType": 5125,
      "count": 358923,
      "type": "SCALAR"
    },
    {
      "bufferView": 1,
      "byteOffset": 1572768,
      "componentType": 5126,
      "count": 65532,
      "max": [
        35.762935638427734,
        15.468820571899414,
        25.06499481201172
      ],
      "min": [
        -32.99833297729492,
        -5.4884209632873535,
        -32.64816665649414
      ],
      "type": "VEC3"
    },
    {
      "bufferView": 1,
      "byteOffset": 2359152,
      "componentType": 5126,
      "count": 65532,
      "max": [
        0.9999203681945801,
        0.9637079834938049,
        0.9999822378158569
      ],
      "min": [
        -0.9999902844429016,
        -0.9999973177909851,
        -0.9995153546333313
      ],
      "type": "VEC3"
    },
    {
      "bufferView": 2,
      "byteOffset": 1048512,
      "componentType": 5126,
      "count": 65532,
      "max": [
        0.843137264251709,
        0.658823549747467,
        0.6039215922355652,
        1.0
      ],
      "min": [
        0.0117647061124444,
        0.0,
        0.0,
        1.0
      ],
      "type": "VEC4"
    },
    {
      "bufferView": 0,
      "byteOffset": 1435692,
      "componentType": 5125,
      "count": 344931,
      "type": "SCALAR"
    },
    {
      "bufferView": 1,
      "byteOffset": 3145536,
      "componentType": 5126,
      "count": 23989,
      "max": [
        36.572906494140625,
        14.118882179260254,
        25.0670108795166
      ],
      "min": [
        -4.93801212310791,
        -4.820141792297363,
        -28.262344360351563
      ],
      "type": "VEC3"
    },
    {
      "bufferView": 1,
      "byteOffset": 3433404,
      "componentType": 5126,
      "count": 23989,
      "max": [
        0.9999818205833435,
        0.8578262329101563,
        0.9999822378158569
      ],
      "min": [
        -0.996441662311554,
        -0.9999753832817078,
        -0.9985179901123047
      ],
      "type": "VEC3"
    },
    {
      "bufferView": 2,
      "byteOffset": 2097024,
      "componentType": 5126,
      "count": 23989,
      "max": [
        0.8313725590705872,
        0.658823549747467,
        0.5960784554481506,
        1.0
      ],
      "min": [
        0.13725490868091583,
        0.0,
        0.0,
        1.0
      ],
      "type": "VEC4"
    },
    {
      "bufferView": 0,
      "byteOffset": 2815416,
      "componentType": 5125,
      "count": 99492,
      "type": "SCALAR"
    }
  ],
  "asset": {
    "extras": {
      "author": "molchanov_mp (https://sketchfab.com/molchanov_mp)",
      "license": "CC-BY-4.0 (http://creativecommons.org/licenses/by/4.0/)",
      "source": "https://sketchfab.com/3d-models/upper-jaw-scan-0157f8f1075c4cf4b58564e424384740",
      "title": "Молчанов Upper Jaw Scan"
    },
    "generator": "Sketchfab-16.29.0",
    "version": "2.0"
  },
  "bufferViews": [
    {
      "buffer": 0,
      "byteLength": 3213384,
      "name": "floatBufferViews",
      "target": 34963
    },
    {
      "buffer": 0,
      "byteLength": 3721272,
      "byteOffset": 3213384,
      "byteStride": 12,
      "name": "floatBufferViews",
      "target": 34962
    },
    {
      "buffer": 0,
      "byteLength": 2480848,
      "byteOffset": 6934656,
      "byteStride": 16,
      "name": "floatBufferViews",
      "target": 34962
    }
  ],
  "buffers": [
    {
      "byteLength": 9415504,
      "uri": "scene.bin"
    }
  ],
  "materials": [
    {
      "doubleSided": true,
      "name": "Scene_-_Root",
      "pbrMetallicRoughness": {
        "metallicFactor": 0.0,
        "roughnessFactor": 0.6
      }
    }
  ],
  "meshes": [
    {
      "name": "Object_0",
      "primitives": [
        {
          "attributes": {
            "COLOR_0": 2,
            "NORMAL": 1,
            "POSITION": 0
          },
          "indices": 3,
          "material": 0,
          "mode": 4
        }
      ]
    },
    {
      "name": "Object_1",
      "primitives": [
        {
          "attributes": {
            "COLOR_0": 6,
            "NORMAL": 5,
            "POSITION": 4
          },
          "indices": 7,
          "material": 0,
          "mode": 4
        }
      ]
    },
    {
      "name": "Object_2",
      "primitives": [
        {
          "attributes": {
            "COLOR_0": 10,
            "NORMAL": 9,
            "POSITION": 8
          },
          "indices": 11,
          "material": 0,
          "mode": 4
        }
      ]
    }
  ],
  "nodes": [
    {
      "children": [
        1
      ],
      "matrix": [
        1.0,
        0.0,
        0.0,
        0.0,
        0.0,
        2.220446049250313e-16,
        -1.0,
        0.0,
        0.0,
        1.0,
        2.220446049250313e-16,
        0.0,
        0.0,
        0.0,
        0.0,
        1.0
      ],
      "name": "Sketchfab_model"
    },
    {
      "children": [
        2,
        3,
        4
      ],
      "name": "Geode"
    },
    {
      "mesh": 0,
      "name": "Object_2"
    },
    {
      "mesh": 1,
      "name": "Object_3"
    },
    {
      "mesh": 2,
      "name": "Object_4"
    }
  ],
  "scene": 0,
  "scenes": [
    {
      "name": "Sketchfab_Scene",
      "nodes": [
        0
      ]
    }
  ]
}
